<mxfile host="app.diagrams.net" agent="Mozilla/5.0 (Windows NT 10.0; Win64; x64) AppleWebKit/537.36 (KHTML, like Gecko) Chrome/131.0.0.0 Safari/537.36" version="24.9.1">
  <diagram name="Trang-1" id="KC7T7FgSkanMNsnPI23E">
    <mxGraphModel dx="521" dy="530" grid="1" gridSize="10" guides="1" tooltips="1" connect="1" arrows="1" fold="1" page="1" pageScale="1" pageWidth="827" pageHeight="1169" math="0" shadow="0">
      <root>
        <mxCell id="0" />
        <mxCell id="1" parent="0" />
        <mxCell id="KmPUtpvsF7lOhPJHQ8SJ-1" value="STM32" style="rounded=1;whiteSpace=wrap;html=1;fillColor=#0050ef;fontColor=#ffffff;strokeColor=#001DBC;" parent="1" vertex="1">
          <mxGeometry x="389" y="377.5" width="120" height="60" as="geometry" />
        </mxCell>
        <mxCell id="KmPUtpvsF7lOhPJHQ8SJ-2" value="TCA9548&amp;nbsp;" style="rounded=1;whiteSpace=wrap;html=1;rotation=90;fillColor=#d80073;fontColor=#ffffff;strokeColor=#A50040;" parent="1" vertex="1">
          <mxGeometry x="229" y="377.5" width="120" height="60" as="geometry" />
        </mxCell>
        <mxCell id="KmPUtpvsF7lOhPJHQ8SJ-3" value="ESP32&amp;nbsp;" style="rounded=1;whiteSpace=wrap;html=1;fillColor=#dae8fc;strokeColor=#6c8ebf;" parent="1" vertex="1">
          <mxGeometry x="389" y="267.5" width="120" height="60" as="geometry" />
        </mxCell>
        <mxCell id="KmPUtpvsF7lOhPJHQ8SJ-4" value="LCD" style="rounded=0;whiteSpace=wrap;html=1;fillColor=#e51400;fontColor=#ffffff;strokeColor=#B20000;" parent="1" vertex="1">
          <mxGeometry x="609" y="367.5" width="80" height="60" as="geometry" />
        </mxCell>
        <mxCell id="KmPUtpvsF7lOhPJHQ8SJ-5" value="I2C" style="rounded=1;whiteSpace=wrap;html=1;fillColor=#e51400;fontColor=#ffffff;strokeColor=#B20000;" parent="1" vertex="1">
          <mxGeometry x="609" y="287.5" width="80" height="60" as="geometry" />
        </mxCell>
        <mxCell id="KmPUtpvsF7lOhPJHQ8SJ-6" value="INA219&amp;nbsp;" style="rounded=1;whiteSpace=wrap;html=1;fillColor=#60a917;strokeColor=#2D7600;fontColor=#ffffff;" parent="1" vertex="1">
          <mxGeometry x="609" y="492.5" width="80" height="60" as="geometry" />
        </mxCell>
        <mxCell id="KmPUtpvsF7lOhPJHQ8SJ-7" value="Bộ giảm áp&amp;nbsp;" style="rounded=1;whiteSpace=wrap;html=1;fillColor=#eeeeee;strokeColor=#36393d;" parent="1" vertex="1">
          <mxGeometry x="229" y="497.5" width="120" height="60" as="geometry" />
        </mxCell>
        <mxCell id="KmPUtpvsF7lOhPJHQ8SJ-8" value="1" style="ellipse;whiteSpace=wrap;html=1;aspect=fixed;fillColor=#f8cecc;gradientColor=#ea6b66;strokeColor=#b85450;" parent="1" vertex="1">
          <mxGeometry x="359" y="527.5" width="30" height="30" as="geometry" />
        </mxCell>
        <mxCell id="KmPUtpvsF7lOhPJHQ8SJ-9" value="2" style="ellipse;whiteSpace=wrap;html=1;aspect=fixed;fillColor=#fff2cc;gradientColor=#ffd966;strokeColor=#d6b656;" parent="1" vertex="1">
          <mxGeometry x="399" y="527.5" width="30" height="30" as="geometry" />
        </mxCell>
        <mxCell id="KmPUtpvsF7lOhPJHQ8SJ-10" value="3" style="ellipse;whiteSpace=wrap;html=1;aspect=fixed;fillColor=#d5e8d4;gradientColor=#97d077;strokeColor=#82b366;" parent="1" vertex="1">
          <mxGeometry x="440" y="527.5" width="30" height="30" as="geometry" />
        </mxCell>
        <mxCell id="KmPUtpvsF7lOhPJHQ8SJ-11" value="DHT11" style="rhombus;whiteSpace=wrap;html=1;fillColor=#fa6800;fontColor=#000000;strokeColor=#C73500;" parent="1" vertex="1">
          <mxGeometry x="269" y="240" width="80" height="80" as="geometry" />
        </mxCell>
        <mxCell id="KmPUtpvsF7lOhPJHQ8SJ-12" value="Công&amp;nbsp;&lt;br&gt;Tắc" style="shape=or;whiteSpace=wrap;html=1;fillColor=#ffcc99;strokeColor=#36393d;" parent="1" vertex="1">
          <mxGeometry x="159" y="502.5" width="40" height="40" as="geometry" />
        </mxCell>
        <mxCell id="OIasl1TtaTXmm97KuADp-10" value="6" style="rounded=1;whiteSpace=wrap;html=1;fillColor=#ffff88;strokeColor=#36393d;" parent="1" vertex="1">
          <mxGeometry x="119" y="310" width="40" height="47.5" as="geometry" />
        </mxCell>
        <mxCell id="OIasl1TtaTXmm97KuADp-11" value="7" style="rounded=1;whiteSpace=wrap;html=1;fillColor=#ffff88;strokeColor=#36393d;" parent="1" vertex="1">
          <mxGeometry x="119" y="375" width="40" height="52.5" as="geometry" />
        </mxCell>
        <mxCell id="OIasl1TtaTXmm97KuADp-12" value="4" style="rounded=1;whiteSpace=wrap;html=1;fillColor=#ffff88;strokeColor=#36393d;" parent="1" vertex="1">
          <mxGeometry x="119" y="180" width="40" height="40" as="geometry" />
        </mxCell>
        <mxCell id="OIasl1TtaTXmm97KuADp-13" value="5" style="rounded=1;whiteSpace=wrap;html=1;fillColor=#ffff88;strokeColor=#36393d;" parent="1" vertex="1">
          <mxGeometry x="119" y="240" width="40" height="40" as="geometry" />
        </mxCell>
        <mxCell id="OIasl1TtaTXmm97KuADp-15" value="" style="endArrow=none;html=1;rounded=0;" parent="1" edge="1">
          <mxGeometry width="50" height="50" relative="1" as="geometry">
            <mxPoint x="159" y="187.5" as="sourcePoint" />
            <mxPoint x="219" y="187.5" as="targetPoint" />
          </mxGeometry>
        </mxCell>
        <mxCell id="OIasl1TtaTXmm97KuADp-53" value="&lt;span style=&quot;font-size: 6px;&quot;&gt;GND&lt;/span&gt;" style="edgeLabel;html=1;align=center;verticalAlign=middle;resizable=0;points=[];" parent="OIasl1TtaTXmm97KuADp-15" vertex="1" connectable="0">
          <mxGeometry x="0.4" y="1" relative="1" as="geometry">
            <mxPoint as="offset" />
          </mxGeometry>
        </mxCell>
        <mxCell id="OIasl1TtaTXmm97KuADp-16" value="" style="endArrow=none;html=1;rounded=0;" parent="1" edge="1">
          <mxGeometry width="50" height="50" relative="1" as="geometry">
            <mxPoint x="159" y="247.5" as="sourcePoint" />
            <mxPoint x="219" y="247.5" as="targetPoint" />
          </mxGeometry>
        </mxCell>
        <mxCell id="OIasl1TtaTXmm97KuADp-55" value="&lt;span style=&quot;font-size: 6px;&quot;&gt;GND&lt;/span&gt;" style="edgeLabel;html=1;align=center;verticalAlign=middle;resizable=0;points=[];" parent="OIasl1TtaTXmm97KuADp-16" vertex="1" connectable="0">
          <mxGeometry x="-0.0444" relative="1" as="geometry">
            <mxPoint as="offset" />
          </mxGeometry>
        </mxCell>
        <mxCell id="OIasl1TtaTXmm97KuADp-18" value="" style="endArrow=none;html=1;rounded=0;" parent="1" edge="1">
          <mxGeometry width="50" height="50" relative="1" as="geometry">
            <mxPoint x="159" y="377.5" as="sourcePoint" />
            <mxPoint x="219" y="377.5" as="targetPoint" />
          </mxGeometry>
        </mxCell>
        <mxCell id="OIasl1TtaTXmm97KuADp-58" value="&lt;font style=&quot;font-size: 6px;&quot;&gt;VCC&lt;/font&gt;" style="edgeLabel;html=1;align=center;verticalAlign=middle;resizable=0;points=[];" parent="OIasl1TtaTXmm97KuADp-18" vertex="1" connectable="0">
          <mxGeometry x="-0.2667" y="1" relative="1" as="geometry">
            <mxPoint as="offset" />
          </mxGeometry>
        </mxCell>
        <mxCell id="OIasl1TtaTXmm97KuADp-19" value="" style="endArrow=none;html=1;rounded=0;" parent="1" edge="1">
          <mxGeometry width="50" height="50" relative="1" as="geometry">
            <mxPoint x="159" y="197.5" as="sourcePoint" />
            <mxPoint x="209" y="197.5" as="targetPoint" />
          </mxGeometry>
        </mxCell>
        <mxCell id="OIasl1TtaTXmm97KuADp-52" value="&lt;font style=&quot;font-size: 6px;&quot;&gt;VCC&lt;/font&gt;" style="edgeLabel;html=1;align=center;verticalAlign=middle;resizable=0;points=[];" parent="OIasl1TtaTXmm97KuADp-19" vertex="1" connectable="0">
          <mxGeometry x="0.1467" relative="1" as="geometry">
            <mxPoint as="offset" />
          </mxGeometry>
        </mxCell>
        <mxCell id="OIasl1TtaTXmm97KuADp-20" value="" style="endArrow=none;html=1;rounded=0;" parent="1" edge="1">
          <mxGeometry width="50" height="50" relative="1" as="geometry">
            <mxPoint x="159" y="257.5" as="sourcePoint" />
            <mxPoint x="209" y="257.5" as="targetPoint" />
          </mxGeometry>
        </mxCell>
        <mxCell id="OIasl1TtaTXmm97KuADp-54" value="&lt;font style=&quot;font-size: 6px;&quot;&gt;VCC&lt;/font&gt;" style="edgeLabel;html=1;align=center;verticalAlign=middle;resizable=0;points=[];" parent="OIasl1TtaTXmm97KuADp-20" vertex="1" connectable="0">
          <mxGeometry x="0.0467" relative="1" as="geometry">
            <mxPoint as="offset" />
          </mxGeometry>
        </mxCell>
        <mxCell id="OIasl1TtaTXmm97KuADp-22" value="" style="endArrow=none;html=1;rounded=0;" parent="1" edge="1">
          <mxGeometry width="50" height="50" relative="1" as="geometry">
            <mxPoint x="159" y="387.5" as="sourcePoint" />
            <mxPoint x="209" y="387.5" as="targetPoint" />
          </mxGeometry>
        </mxCell>
        <mxCell id="OIasl1TtaTXmm97KuADp-59" value="&lt;font style=&quot;font-size: 6px;&quot;&gt;GND&lt;/font&gt;" style="edgeLabel;html=1;align=center;verticalAlign=middle;resizable=0;points=[];" parent="OIasl1TtaTXmm97KuADp-22" vertex="1" connectable="0">
          <mxGeometry x="-0.3311" y="1" relative="1" as="geometry">
            <mxPoint as="offset" />
          </mxGeometry>
        </mxCell>
        <mxCell id="OIasl1TtaTXmm97KuADp-23" value="" style="endArrow=none;html=1;rounded=0;" parent="1" edge="1">
          <mxGeometry width="50" height="50" relative="1" as="geometry">
            <mxPoint x="159" y="317.5" as="sourcePoint" />
            <mxPoint x="219" y="317.5" as="targetPoint" />
          </mxGeometry>
        </mxCell>
        <mxCell id="OIasl1TtaTXmm97KuADp-56" value="&lt;font style=&quot;font-size: 6px;&quot;&gt;GND&lt;/font&gt;" style="edgeLabel;html=1;align=center;verticalAlign=middle;resizable=0;points=[];" parent="OIasl1TtaTXmm97KuADp-23" vertex="1" connectable="0">
          <mxGeometry x="0.1222" relative="1" as="geometry">
            <mxPoint as="offset" />
          </mxGeometry>
        </mxCell>
        <mxCell id="OIasl1TtaTXmm97KuADp-24" value="" style="endArrow=none;html=1;rounded=0;" parent="1" edge="1">
          <mxGeometry width="50" height="50" relative="1" as="geometry">
            <mxPoint x="159" y="327.5" as="sourcePoint" />
            <mxPoint x="209" y="327.5" as="targetPoint" />
          </mxGeometry>
        </mxCell>
        <mxCell id="OIasl1TtaTXmm97KuADp-57" value="&lt;font style=&quot;font-size: 6px;&quot;&gt;VCC&lt;/font&gt;" style="edgeLabel;html=1;align=center;verticalAlign=middle;resizable=0;points=[];" parent="OIasl1TtaTXmm97KuADp-24" vertex="1" connectable="0">
          <mxGeometry x="-0.2644" relative="1" as="geometry">
            <mxPoint as="offset" />
          </mxGeometry>
        </mxCell>
        <mxCell id="OIasl1TtaTXmm97KuADp-25" value="" style="endArrow=none;html=1;rounded=0;" parent="1" edge="1">
          <mxGeometry width="50" height="50" relative="1" as="geometry">
            <mxPoint x="409" y="377.5" as="sourcePoint" />
            <mxPoint x="409" y="337.5" as="targetPoint" />
          </mxGeometry>
        </mxCell>
        <mxCell id="OIasl1TtaTXmm97KuADp-29" value="&lt;font style=&quot;font-size: 8px;&quot;&gt;GND&lt;/font&gt;" style="edgeLabel;html=1;align=center;verticalAlign=middle;resizable=0;points=[];rotation=-90;" parent="OIasl1TtaTXmm97KuADp-25" vertex="1" connectable="0">
          <mxGeometry x="0.3014" y="2" relative="1" as="geometry">
            <mxPoint x="-8" y="6" as="offset" />
          </mxGeometry>
        </mxCell>
        <mxCell id="OIasl1TtaTXmm97KuADp-26" value="" style="endArrow=none;html=1;rounded=0;" parent="1" edge="1">
          <mxGeometry width="50" height="50" relative="1" as="geometry">
            <mxPoint x="219" y="337.5" as="sourcePoint" />
            <mxPoint x="219" y="190" as="targetPoint" />
          </mxGeometry>
        </mxCell>
        <mxCell id="OIasl1TtaTXmm97KuADp-27" value="" style="endArrow=none;html=1;rounded=0;" parent="1" edge="1">
          <mxGeometry width="50" height="50" relative="1" as="geometry">
            <mxPoint x="219" y="337.5" as="sourcePoint" />
            <mxPoint x="409" y="337.5" as="targetPoint" />
          </mxGeometry>
        </mxCell>
        <mxCell id="OIasl1TtaTXmm97KuADp-28" value="" style="endArrow=none;html=1;rounded=0;" parent="1" edge="1">
          <mxGeometry width="50" height="50" relative="1" as="geometry">
            <mxPoint x="219" y="377.5" as="sourcePoint" />
            <mxPoint x="219" y="337.5" as="targetPoint" />
          </mxGeometry>
        </mxCell>
        <mxCell id="OIasl1TtaTXmm97KuADp-30" value="" style="endArrow=none;html=1;rounded=0;" parent="1" edge="1">
          <mxGeometry width="50" height="50" relative="1" as="geometry">
            <mxPoint x="499" y="477.5" as="sourcePoint" />
            <mxPoint x="499" y="437.5" as="targetPoint" />
          </mxGeometry>
        </mxCell>
        <mxCell id="OIasl1TtaTXmm97KuADp-33" value="&lt;font style=&quot;font-size: 8px;&quot;&gt;Vin&lt;/font&gt;" style="edgeLabel;html=1;align=center;verticalAlign=middle;resizable=0;points=[];rotation=-90;" parent="OIasl1TtaTXmm97KuADp-30" vertex="1" connectable="0">
          <mxGeometry x="0.2386" y="-1" relative="1" as="geometry">
            <mxPoint x="-2" as="offset" />
          </mxGeometry>
        </mxCell>
        <mxCell id="OIasl1TtaTXmm97KuADp-31" value="" style="endArrow=none;html=1;rounded=0;" parent="1" edge="1">
          <mxGeometry width="50" height="50" relative="1" as="geometry">
            <mxPoint x="209" y="477.5" as="sourcePoint" />
            <mxPoint x="499" y="477.5" as="targetPoint" />
          </mxGeometry>
        </mxCell>
        <mxCell id="OIasl1TtaTXmm97KuADp-32" value="" style="endArrow=none;html=1;rounded=0;" parent="1" edge="1">
          <mxGeometry width="50" height="50" relative="1" as="geometry">
            <mxPoint x="209" y="478.414306640625" as="sourcePoint" />
            <mxPoint x="209" y="197.5" as="targetPoint" />
          </mxGeometry>
        </mxCell>
        <mxCell id="OIasl1TtaTXmm97KuADp-34" value="" style="endArrow=none;html=1;rounded=0;" parent="1" edge="1">
          <mxGeometry width="50" height="50" relative="1" as="geometry">
            <mxPoint x="159" y="207.5" as="sourcePoint" />
            <mxPoint x="229" y="207.5" as="targetPoint" />
          </mxGeometry>
        </mxCell>
        <mxCell id="OIasl1TtaTXmm97KuADp-51" value="&lt;span style=&quot;font-size: 6px;&quot;&gt;SCL&lt;/span&gt;" style="edgeLabel;html=1;align=center;verticalAlign=middle;resizable=0;points=[];" parent="OIasl1TtaTXmm97KuADp-34" vertex="1" connectable="0">
          <mxGeometry x="-0.3635" y="1" relative="1" as="geometry">
            <mxPoint as="offset" />
          </mxGeometry>
        </mxCell>
        <mxCell id="OIasl1TtaTXmm97KuADp-35" value="" style="endArrow=none;html=1;rounded=0;" parent="1" edge="1">
          <mxGeometry width="50" height="50" relative="1" as="geometry">
            <mxPoint x="159" y="266.93" as="sourcePoint" />
            <mxPoint x="239" y="267.5" as="targetPoint" />
          </mxGeometry>
        </mxCell>
        <mxCell id="OIasl1TtaTXmm97KuADp-50" value="&lt;span style=&quot;font-size: 8px;&quot;&gt;SCL&lt;/span&gt;" style="edgeLabel;html=1;align=center;verticalAlign=middle;resizable=0;points=[];" parent="OIasl1TtaTXmm97KuADp-35" vertex="1" connectable="0">
          <mxGeometry x="-0.4361" relative="1" as="geometry">
            <mxPoint as="offset" />
          </mxGeometry>
        </mxCell>
        <mxCell id="OIasl1TtaTXmm97KuADp-36" value="" style="endArrow=none;html=1;rounded=0;" parent="1" edge="1">
          <mxGeometry width="50" height="50" relative="1" as="geometry">
            <mxPoint x="159" y="337.5" as="sourcePoint" />
            <mxPoint x="199" y="337.5" as="targetPoint" />
          </mxGeometry>
        </mxCell>
        <mxCell id="OIasl1TtaTXmm97KuADp-49" value="&lt;font style=&quot;font-size: 6px;&quot;&gt;SCL&lt;/font&gt;" style="edgeLabel;html=1;align=center;verticalAlign=middle;resizable=0;points=[];" parent="OIasl1TtaTXmm97KuADp-36" vertex="1" connectable="0">
          <mxGeometry x="-0.1917" y="1" relative="1" as="geometry">
            <mxPoint as="offset" />
          </mxGeometry>
        </mxCell>
        <mxCell id="OIasl1TtaTXmm97KuADp-37" value="" style="endArrow=none;html=1;rounded=0;" parent="1" edge="1">
          <mxGeometry width="50" height="50" relative="1" as="geometry">
            <mxPoint x="159" y="407.50000000000006" as="sourcePoint" />
            <mxPoint x="199" y="407.50000000000006" as="targetPoint" />
          </mxGeometry>
        </mxCell>
        <mxCell id="OIasl1TtaTXmm97KuADp-47" value="&lt;font style=&quot;font-size: 6px;&quot;&gt;SCL&lt;/font&gt;" style="edgeLabel;html=1;align=center;verticalAlign=middle;resizable=0;points=[];" parent="OIasl1TtaTXmm97KuADp-37" vertex="1" connectable="0">
          <mxGeometry x="-0.5333" y="-1" relative="1" as="geometry">
            <mxPoint x="11" y="-1" as="offset" />
          </mxGeometry>
        </mxCell>
        <mxCell id="OIasl1TtaTXmm97KuADp-38" value="" style="endArrow=none;html=1;rounded=0;" parent="1" edge="1">
          <mxGeometry width="50" height="50" relative="1" as="geometry">
            <mxPoint x="229" y="357.5" as="sourcePoint" />
            <mxPoint x="229" y="207.5" as="targetPoint" />
          </mxGeometry>
        </mxCell>
        <mxCell id="OIasl1TtaTXmm97KuADp-39" value="" style="endArrow=none;html=1;rounded=0;entryX=0.105;entryY=1.015;entryDx=0;entryDy=0;entryPerimeter=0;" parent="1" target="KmPUtpvsF7lOhPJHQ8SJ-2" edge="1">
          <mxGeometry width="50" height="50" relative="1" as="geometry">
            <mxPoint x="229" y="360" as="sourcePoint" />
            <mxPoint x="256" y="360.5" as="targetPoint" />
          </mxGeometry>
        </mxCell>
        <mxCell id="OIasl1TtaTXmm97KuADp-40" value="" style="endArrow=none;html=1;rounded=0;" parent="1" edge="1">
          <mxGeometry width="50" height="50" relative="1" as="geometry">
            <mxPoint x="239" y="377.5" as="sourcePoint" />
            <mxPoint x="239" y="267.5" as="targetPoint" />
          </mxGeometry>
        </mxCell>
        <mxCell id="OIasl1TtaTXmm97KuADp-42" value="" style="endArrow=none;html=1;rounded=0;entryX=0.25;entryY=1;entryDx=0;entryDy=0;" parent="1" target="KmPUtpvsF7lOhPJHQ8SJ-2" edge="1">
          <mxGeometry width="50" height="50" relative="1" as="geometry">
            <mxPoint x="239" y="377.5" as="sourcePoint" />
            <mxPoint x="289" y="327.5" as="targetPoint" />
          </mxGeometry>
        </mxCell>
        <mxCell id="OIasl1TtaTXmm97KuADp-43" value="" style="endArrow=none;html=1;rounded=0;" parent="1" edge="1">
          <mxGeometry width="50" height="50" relative="1" as="geometry">
            <mxPoint x="199" y="397.5" as="sourcePoint" />
            <mxPoint x="199" y="337.5" as="targetPoint" />
          </mxGeometry>
        </mxCell>
        <mxCell id="OIasl1TtaTXmm97KuADp-44" value="" style="endArrow=none;html=1;rounded=0;entryX=0.417;entryY=1.033;entryDx=0;entryDy=0;entryPerimeter=0;" parent="1" target="KmPUtpvsF7lOhPJHQ8SJ-2" edge="1">
          <mxGeometry width="50" height="50" relative="1" as="geometry">
            <mxPoint x="199" y="397.5" as="sourcePoint" />
            <mxPoint x="249" y="347.5" as="targetPoint" />
          </mxGeometry>
        </mxCell>
        <mxCell id="OIasl1TtaTXmm97KuADp-45" value="" style="endArrow=none;html=1;rounded=0;" parent="1" edge="1">
          <mxGeometry width="50" height="50" relative="1" as="geometry">
            <mxPoint x="199" y="417.5" as="sourcePoint" />
            <mxPoint x="199" y="407.5" as="targetPoint" />
          </mxGeometry>
        </mxCell>
        <mxCell id="OIasl1TtaTXmm97KuADp-46" value="" style="endArrow=none;html=1;rounded=0;entryX=0.585;entryY=0.996;entryDx=0;entryDy=0;entryPerimeter=0;" parent="1" target="KmPUtpvsF7lOhPJHQ8SJ-2" edge="1">
          <mxGeometry width="50" height="50" relative="1" as="geometry">
            <mxPoint x="199" y="417.5" as="sourcePoint" />
            <mxPoint x="249" y="367.5" as="targetPoint" />
          </mxGeometry>
        </mxCell>
        <mxCell id="OIasl1TtaTXmm97KuADp-61" value="" style="endArrow=none;html=1;rounded=0;" parent="1" edge="1">
          <mxGeometry width="50" height="50" relative="1" as="geometry">
            <mxPoint x="99" y="217.5" as="sourcePoint" />
            <mxPoint x="119" y="217.5" as="targetPoint" />
          </mxGeometry>
        </mxCell>
        <mxCell id="OIasl1TtaTXmm97KuADp-62" value="" style="endArrow=none;html=1;rounded=0;" parent="1" edge="1">
          <mxGeometry width="50" height="50" relative="1" as="geometry">
            <mxPoint x="99" y="367.5" as="sourcePoint" />
            <mxPoint x="99" y="217.5" as="targetPoint" />
          </mxGeometry>
        </mxCell>
        <mxCell id="OIasl1TtaTXmm97KuADp-63" value="" style="endArrow=none;html=1;rounded=0;entryX=0.167;entryY=1;entryDx=0;entryDy=0;entryPerimeter=0;" parent="1" target="KmPUtpvsF7lOhPJHQ8SJ-2" edge="1">
          <mxGeometry width="50" height="50" relative="1" as="geometry">
            <mxPoint x="99" y="367.5" as="sourcePoint" />
            <mxPoint x="149" y="317.5" as="targetPoint" />
          </mxGeometry>
        </mxCell>
        <mxCell id="OIasl1TtaTXmm97KuADp-64" value="&lt;font style=&quot;font-size: 6px;&quot;&gt;SDA&lt;/font&gt;" style="edgeLabel;html=1;align=center;verticalAlign=middle;resizable=0;points=[];" parent="OIasl1TtaTXmm97KuADp-63" vertex="1" connectable="0">
          <mxGeometry x="-0.7071" relative="1" as="geometry">
            <mxPoint as="offset" />
          </mxGeometry>
        </mxCell>
        <mxCell id="OIasl1TtaTXmm97KuADp-65" value="" style="endArrow=none;html=1;rounded=0;" parent="1" edge="1">
          <mxGeometry width="50" height="50" relative="1" as="geometry">
            <mxPoint x="109" y="267.5" as="sourcePoint" />
            <mxPoint x="119" y="267.5" as="targetPoint" />
          </mxGeometry>
        </mxCell>
        <mxCell id="OIasl1TtaTXmm97KuADp-66" value="" style="endArrow=none;html=1;rounded=0;" parent="1" edge="1">
          <mxGeometry width="50" height="50" relative="1" as="geometry">
            <mxPoint x="109" y="437.5" as="sourcePoint" />
            <mxPoint x="109" y="267.5" as="targetPoint" />
          </mxGeometry>
        </mxCell>
        <mxCell id="OIasl1TtaTXmm97KuADp-67" value="" style="endArrow=none;html=1;rounded=0;entryX=0.75;entryY=1;entryDx=0;entryDy=0;" parent="1" target="KmPUtpvsF7lOhPJHQ8SJ-2" edge="1">
          <mxGeometry width="50" height="50" relative="1" as="geometry">
            <mxPoint x="109" y="437.5" as="sourcePoint" />
            <mxPoint x="159" y="387.5" as="targetPoint" />
          </mxGeometry>
        </mxCell>
        <mxCell id="OIasl1TtaTXmm97KuADp-68" value="&lt;font style=&quot;font-size: 6px;&quot;&gt;SDA&lt;/font&gt;" style="edgeLabel;html=1;align=center;verticalAlign=middle;resizable=0;points=[];" parent="OIasl1TtaTXmm97KuADp-67" vertex="1" connectable="0">
          <mxGeometry x="-0.7752" y="-1" relative="1" as="geometry">
            <mxPoint as="offset" />
          </mxGeometry>
        </mxCell>
        <mxCell id="OIasl1TtaTXmm97KuADp-69" value="" style="endArrow=none;html=1;rounded=0;" parent="1" edge="1">
          <mxGeometry width="50" height="50" relative="1" as="geometry">
            <mxPoint x="89" y="347.5" as="sourcePoint" />
            <mxPoint x="119" y="347.5" as="targetPoint" />
          </mxGeometry>
        </mxCell>
        <mxCell id="OIasl1TtaTXmm97KuADp-70" value="" style="endArrow=none;html=1;rounded=0;" parent="1" edge="1">
          <mxGeometry width="50" height="50" relative="1" as="geometry">
            <mxPoint x="89" y="447.5" as="sourcePoint" />
            <mxPoint x="89" y="347.5" as="targetPoint" />
          </mxGeometry>
        </mxCell>
        <mxCell id="OIasl1TtaTXmm97KuADp-71" value="" style="endArrow=none;html=1;rounded=0;entryX=0.833;entryY=1;entryDx=0;entryDy=0;entryPerimeter=0;" parent="1" target="KmPUtpvsF7lOhPJHQ8SJ-2" edge="1">
          <mxGeometry width="50" height="50" relative="1" as="geometry">
            <mxPoint x="89" y="447.5" as="sourcePoint" />
            <mxPoint x="139" y="397.5" as="targetPoint" />
          </mxGeometry>
        </mxCell>
        <mxCell id="OIasl1TtaTXmm97KuADp-72" value="&lt;font style=&quot;font-size: 6px;&quot;&gt;SDA&lt;/font&gt;" style="edgeLabel;html=1;align=center;verticalAlign=middle;resizable=0;points=[];" parent="OIasl1TtaTXmm97KuADp-71" vertex="1" connectable="0">
          <mxGeometry x="-0.3076" y="1" relative="1" as="geometry">
            <mxPoint as="offset" />
          </mxGeometry>
        </mxCell>
        <mxCell id="OIasl1TtaTXmm97KuADp-73" value="" style="endArrow=none;html=1;rounded=0;" parent="1" edge="1">
          <mxGeometry width="50" height="50" relative="1" as="geometry">
            <mxPoint x="99" y="407.5" as="sourcePoint" />
            <mxPoint x="119" y="407.5" as="targetPoint" />
          </mxGeometry>
        </mxCell>
        <mxCell id="OIasl1TtaTXmm97KuADp-74" value="" style="endArrow=none;html=1;rounded=0;" parent="1" edge="1">
          <mxGeometry width="50" height="50" relative="1" as="geometry">
            <mxPoint x="99" y="467.5" as="sourcePoint" />
            <mxPoint x="99" y="407.5" as="targetPoint" />
          </mxGeometry>
        </mxCell>
        <mxCell id="OIasl1TtaTXmm97KuADp-75" value="" style="endArrow=none;html=1;rounded=0;entryX=1;entryY=1;entryDx=0;entryDy=0;" parent="1" target="KmPUtpvsF7lOhPJHQ8SJ-2" edge="1">
          <mxGeometry width="50" height="50" relative="1" as="geometry">
            <mxPoint x="99" y="467.5" as="sourcePoint" />
            <mxPoint x="149" y="417.5" as="targetPoint" />
          </mxGeometry>
        </mxCell>
        <mxCell id="OIasl1TtaTXmm97KuADp-76" value="&lt;font style=&quot;font-size: 6px;&quot;&gt;SDA&lt;/font&gt;" style="edgeLabel;html=1;align=center;verticalAlign=middle;resizable=0;points=[];" parent="OIasl1TtaTXmm97KuADp-75" vertex="1" connectable="0">
          <mxGeometry x="-0.281" relative="1" as="geometry">
            <mxPoint as="offset" />
          </mxGeometry>
        </mxCell>
        <mxCell id="OIasl1TtaTXmm97KuADp-77" value="" style="endArrow=none;html=1;rounded=0;" parent="1" edge="1">
          <mxGeometry width="50" height="50" relative="1" as="geometry">
            <mxPoint x="319" y="357.5" as="sourcePoint" />
            <mxPoint x="329" y="357.5" as="targetPoint" />
          </mxGeometry>
        </mxCell>
        <mxCell id="OIasl1TtaTXmm97KuADp-84" value="&lt;font style=&quot;font-size: 6px;&quot;&gt;A0&lt;/font&gt;" style="edgeLabel;html=1;align=center;verticalAlign=middle;resizable=0;points=[];" parent="OIasl1TtaTXmm97KuADp-77" vertex="1" connectable="0">
          <mxGeometry x="0.04" relative="1" as="geometry">
            <mxPoint as="offset" />
          </mxGeometry>
        </mxCell>
        <mxCell id="OIasl1TtaTXmm97KuADp-78" value="" style="endArrow=none;html=1;rounded=0;" parent="1" edge="1">
          <mxGeometry width="50" height="50" relative="1" as="geometry">
            <mxPoint x="319" y="367.5" as="sourcePoint" />
            <mxPoint x="339" y="367.5" as="targetPoint" />
          </mxGeometry>
        </mxCell>
        <mxCell id="OIasl1TtaTXmm97KuADp-85" value="&lt;font style=&quot;font-size: 6px;&quot;&gt;A1&lt;/font&gt;" style="edgeLabel;html=1;align=center;verticalAlign=middle;resizable=0;points=[];" parent="OIasl1TtaTXmm97KuADp-78" vertex="1" connectable="0">
          <mxGeometry x="0.2867" y="-1" relative="1" as="geometry">
            <mxPoint as="offset" />
          </mxGeometry>
        </mxCell>
        <mxCell id="OIasl1TtaTXmm97KuADp-79" value="" style="endArrow=none;html=1;rounded=0;" parent="1" edge="1">
          <mxGeometry width="50" height="50" relative="1" as="geometry">
            <mxPoint x="319" y="377.5" as="sourcePoint" />
            <mxPoint x="349" y="377.5" as="targetPoint" />
          </mxGeometry>
        </mxCell>
        <mxCell id="OIasl1TtaTXmm97KuADp-86" value="&lt;font style=&quot;font-size: 6px;&quot;&gt;A2&lt;/font&gt;" style="edgeLabel;html=1;align=center;verticalAlign=middle;resizable=0;points=[];" parent="OIasl1TtaTXmm97KuADp-79" vertex="1" connectable="0">
          <mxGeometry x="0.5911" y="1" relative="1" as="geometry">
            <mxPoint as="offset" />
          </mxGeometry>
        </mxCell>
        <mxCell id="OIasl1TtaTXmm97KuADp-81" value="" style="endArrow=none;html=1;rounded=0;" parent="1" edge="1">
          <mxGeometry width="50" height="50" relative="1" as="geometry">
            <mxPoint x="329" y="357.5" as="sourcePoint" />
            <mxPoint x="329" y="337.5" as="targetPoint" />
          </mxGeometry>
        </mxCell>
        <mxCell id="OIasl1TtaTXmm97KuADp-82" value="" style="endArrow=none;html=1;rounded=0;" parent="1" edge="1">
          <mxGeometry width="50" height="50" relative="1" as="geometry">
            <mxPoint x="339" y="367.5" as="sourcePoint" />
            <mxPoint x="339" y="337.5" as="targetPoint" />
          </mxGeometry>
        </mxCell>
        <mxCell id="OIasl1TtaTXmm97KuADp-83" value="" style="endArrow=none;html=1;rounded=0;" parent="1" edge="1">
          <mxGeometry width="50" height="50" relative="1" as="geometry">
            <mxPoint x="349" y="377.17" as="sourcePoint" />
            <mxPoint x="349" y="337.5" as="targetPoint" />
          </mxGeometry>
        </mxCell>
        <mxCell id="OIasl1TtaTXmm97KuADp-87" value="" style="endArrow=none;html=1;rounded=0;" parent="1" edge="1">
          <mxGeometry width="50" height="50" relative="1" as="geometry">
            <mxPoint x="319" y="387.5" as="sourcePoint" />
            <mxPoint x="369" y="387.5" as="targetPoint" />
          </mxGeometry>
        </mxCell>
        <mxCell id="OIasl1TtaTXmm97KuADp-89" value="&lt;font style=&quot;font-size: 6px;&quot;&gt;GND&lt;/font&gt;" style="edgeLabel;html=1;align=center;verticalAlign=middle;resizable=0;points=[];" parent="OIasl1TtaTXmm97KuADp-87" vertex="1" connectable="0">
          <mxGeometry x="0.0971" relative="1" as="geometry">
            <mxPoint as="offset" />
          </mxGeometry>
        </mxCell>
        <mxCell id="OIasl1TtaTXmm97KuADp-88" value="" style="endArrow=none;html=1;rounded=0;" parent="1" edge="1">
          <mxGeometry width="50" height="50" relative="1" as="geometry">
            <mxPoint x="369" y="387.5" as="sourcePoint" />
            <mxPoint x="369" y="337.5" as="targetPoint" />
          </mxGeometry>
        </mxCell>
        <mxCell id="OIasl1TtaTXmm97KuADp-90" value="" style="endArrow=none;html=1;rounded=0;" parent="1" edge="1">
          <mxGeometry width="50" height="50" relative="1" as="geometry">
            <mxPoint x="319" y="397.5" as="sourcePoint" />
            <mxPoint x="369" y="397.5" as="targetPoint" />
          </mxGeometry>
        </mxCell>
        <mxCell id="OIasl1TtaTXmm97KuADp-92" value="&lt;font style=&quot;font-size: 6px;&quot;&gt;Vin&lt;/font&gt;" style="edgeLabel;html=1;align=center;verticalAlign=middle;resizable=0;points=[];" parent="OIasl1TtaTXmm97KuADp-90" vertex="1" connectable="0">
          <mxGeometry x="0.1924" relative="1" as="geometry">
            <mxPoint as="offset" />
          </mxGeometry>
        </mxCell>
        <mxCell id="OIasl1TtaTXmm97KuADp-91" value="" style="endArrow=none;html=1;rounded=0;" parent="1" edge="1">
          <mxGeometry width="50" height="50" relative="1" as="geometry">
            <mxPoint x="369" y="477.5" as="sourcePoint" />
            <mxPoint x="369" y="397.5" as="targetPoint" />
          </mxGeometry>
        </mxCell>
        <mxCell id="OIasl1TtaTXmm97KuADp-93" value="" style="endArrow=none;html=1;rounded=0;" parent="1" edge="1">
          <mxGeometry width="50" height="50" relative="1" as="geometry">
            <mxPoint x="319" y="407.5" as="sourcePoint" />
            <mxPoint x="359" y="407.5" as="targetPoint" />
          </mxGeometry>
        </mxCell>
        <mxCell id="OIasl1TtaTXmm97KuADp-98" value="&lt;font style=&quot;font-size: 6px;&quot;&gt;SCL&lt;/font&gt;" style="edgeLabel;html=1;align=center;verticalAlign=middle;resizable=0;points=[];" parent="OIasl1TtaTXmm97KuADp-93" vertex="1" connectable="0">
          <mxGeometry x="0.0143" relative="1" as="geometry">
            <mxPoint as="offset" />
          </mxGeometry>
        </mxCell>
        <mxCell id="OIasl1TtaTXmm97KuADp-94" value="" style="endArrow=none;html=1;rounded=0;" parent="1" edge="1">
          <mxGeometry width="50" height="50" relative="1" as="geometry">
            <mxPoint x="359" y="457.5" as="sourcePoint" />
            <mxPoint x="359" y="407.5" as="targetPoint" />
          </mxGeometry>
        </mxCell>
        <mxCell id="OIasl1TtaTXmm97KuADp-95" value="" style="endArrow=none;html=1;rounded=0;" parent="1" edge="1">
          <mxGeometry width="50" height="50" relative="1" as="geometry">
            <mxPoint x="359" y="457.5" as="sourcePoint" />
            <mxPoint x="469" y="457.5" as="targetPoint" />
          </mxGeometry>
        </mxCell>
        <mxCell id="OIasl1TtaTXmm97KuADp-96" value="" style="endArrow=none;html=1;rounded=0;" parent="1" edge="1">
          <mxGeometry width="50" height="50" relative="1" as="geometry">
            <mxPoint x="469" y="457.5" as="sourcePoint" />
            <mxPoint x="469" y="437.5" as="targetPoint" />
          </mxGeometry>
        </mxCell>
        <mxCell id="OIasl1TtaTXmm97KuADp-99" value="&lt;font style=&quot;font-size: 6px;&quot;&gt;PB6&lt;/font&gt;" style="edgeLabel;html=1;align=center;verticalAlign=middle;resizable=0;points=[];rotation=-90;" parent="OIasl1TtaTXmm97KuADp-96" vertex="1" connectable="0">
          <mxGeometry x="0.4571" y="2" relative="1" as="geometry">
            <mxPoint x="1" y="5" as="offset" />
          </mxGeometry>
        </mxCell>
        <mxCell id="OIasl1TtaTXmm97KuADp-100" value="" style="endArrow=none;html=1;rounded=0;" parent="1" edge="1">
          <mxGeometry width="50" height="50" relative="1" as="geometry">
            <mxPoint x="319" y="417.5" as="sourcePoint" />
            <mxPoint x="349" y="417.5" as="targetPoint" />
          </mxGeometry>
        </mxCell>
        <mxCell id="OIasl1TtaTXmm97KuADp-105" value="&lt;span style=&quot;font-size: 6px;&quot;&gt;SDA&lt;/span&gt;" style="edgeLabel;html=1;align=center;verticalAlign=middle;resizable=0;points=[];" parent="OIasl1TtaTXmm97KuADp-100" vertex="1" connectable="0">
          <mxGeometry x="0.2667" y="1" relative="1" as="geometry">
            <mxPoint x="-9" as="offset" />
          </mxGeometry>
        </mxCell>
        <mxCell id="OIasl1TtaTXmm97KuADp-101" value="" style="endArrow=none;html=1;rounded=0;" parent="1" edge="1">
          <mxGeometry width="50" height="50" relative="1" as="geometry">
            <mxPoint x="349" y="467.5" as="sourcePoint" />
            <mxPoint x="349" y="417.5" as="targetPoint" />
          </mxGeometry>
        </mxCell>
        <mxCell id="OIasl1TtaTXmm97KuADp-102" value="" style="endArrow=none;html=1;rounded=0;" parent="1" edge="1">
          <mxGeometry width="50" height="50" relative="1" as="geometry">
            <mxPoint x="349" y="467.5" as="sourcePoint" />
            <mxPoint x="479" y="467.5" as="targetPoint" />
          </mxGeometry>
        </mxCell>
        <mxCell id="OIasl1TtaTXmm97KuADp-103" value="" style="endArrow=none;html=1;rounded=0;entryX=0.75;entryY=1;entryDx=0;entryDy=0;" parent="1" target="KmPUtpvsF7lOhPJHQ8SJ-1" edge="1">
          <mxGeometry width="50" height="50" relative="1" as="geometry">
            <mxPoint x="479" y="467.5" as="sourcePoint" />
            <mxPoint x="529" y="417.5" as="targetPoint" />
          </mxGeometry>
        </mxCell>
        <mxCell id="OIasl1TtaTXmm97KuADp-104" value="&lt;span style=&quot;font-size: 6px;&quot;&gt;PB7&lt;/span&gt;" style="edgeLabel;html=1;align=center;verticalAlign=middle;resizable=0;points=[];rotation=-90;" parent="OIasl1TtaTXmm97KuADp-103" vertex="1" connectable="0">
          <mxGeometry x="0.5024" relative="1" as="geometry">
            <mxPoint y="3" as="offset" />
          </mxGeometry>
        </mxCell>
        <mxCell id="OIasl1TtaTXmm97KuADp-106" value="Driver Vertical" style="rounded=1;whiteSpace=wrap;html=1;fillColor=#e3c800;fontColor=#000000;strokeColor=#B09500;" parent="1" vertex="1">
          <mxGeometry x="509" y="170" width="100" height="60" as="geometry" />
        </mxCell>
        <mxCell id="OIasl1TtaTXmm97KuADp-107" value="Driver Horizontal" style="rounded=1;whiteSpace=wrap;html=1;fillColor=#e3c800;fontColor=#000000;strokeColor=#B09500;" parent="1" vertex="1">
          <mxGeometry x="509" y="587.5" width="100" height="60" as="geometry" />
        </mxCell>
        <mxCell id="OIasl1TtaTXmm97KuADp-109" value="" style="endArrow=none;html=1;rounded=0;" parent="1" edge="1">
          <mxGeometry width="50" height="50" relative="1" as="geometry">
            <mxPoint x="529" y="350" as="sourcePoint" />
            <mxPoint x="529" y="230" as="targetPoint" />
          </mxGeometry>
        </mxCell>
        <mxCell id="OIasl1TtaTXmm97KuADp-110" value="" style="endArrow=none;html=1;rounded=0;" parent="1" edge="1">
          <mxGeometry width="50" height="50" relative="1" as="geometry">
            <mxPoint x="409" y="342.5" as="sourcePoint" />
            <mxPoint x="529" y="343" as="targetPoint" />
          </mxGeometry>
        </mxCell>
        <mxCell id="OIasl1TtaTXmm97KuADp-111" value="" style="endArrow=none;html=1;rounded=0;exitX=0.203;exitY=0.024;exitDx=0;exitDy=0;exitPerimeter=0;" parent="1" source="OIasl1TtaTXmm97KuADp-107" edge="1">
          <mxGeometry width="50" height="50" relative="1" as="geometry">
            <mxPoint x="529" y="585" as="sourcePoint" />
            <mxPoint x="529" y="350" as="targetPoint" />
          </mxGeometry>
        </mxCell>
        <mxCell id="OIasl1TtaTXmm97KuADp-112" value="" style="endArrow=none;html=1;rounded=0;" parent="1" edge="1">
          <mxGeometry width="50" height="50" relative="1" as="geometry">
            <mxPoint x="539" y="240" as="sourcePoint" />
            <mxPoint x="539" y="230" as="targetPoint" />
          </mxGeometry>
        </mxCell>
        <mxCell id="OIasl1TtaTXmm97KuADp-113" value="" style="endArrow=none;html=1;rounded=0;" parent="1" edge="1">
          <mxGeometry width="50" height="50" relative="1" as="geometry">
            <mxPoint x="549" y="240" as="sourcePoint" />
            <mxPoint x="549" y="230" as="targetPoint" />
          </mxGeometry>
        </mxCell>
        <mxCell id="OIasl1TtaTXmm97KuADp-114" value="" style="endArrow=none;html=1;rounded=0;" parent="1" edge="1">
          <mxGeometry width="50" height="50" relative="1" as="geometry">
            <mxPoint x="534" y="587.5" as="sourcePoint" />
            <mxPoint x="534" y="580" as="targetPoint" />
          </mxGeometry>
        </mxCell>
        <mxCell id="OIasl1TtaTXmm97KuADp-115" value="" style="endArrow=none;html=1;rounded=0;" parent="1" edge="1">
          <mxGeometry width="50" height="50" relative="1" as="geometry">
            <mxPoint x="539" y="587.5" as="sourcePoint" />
            <mxPoint x="539" y="580" as="targetPoint" />
          </mxGeometry>
        </mxCell>
        <mxCell id="OIasl1TtaTXmm97KuADp-116" value="" style="endArrow=none;html=1;rounded=0;" parent="1" edge="1">
          <mxGeometry width="50" height="50" relative="1" as="geometry">
            <mxPoint x="529" y="580" as="sourcePoint" />
            <mxPoint x="539" y="580" as="targetPoint" />
          </mxGeometry>
        </mxCell>
        <mxCell id="OIasl1TtaTXmm97KuADp-117" value="" style="endArrow=none;html=1;rounded=0;" parent="1" edge="1">
          <mxGeometry width="50" height="50" relative="1" as="geometry">
            <mxPoint x="529" y="240" as="sourcePoint" />
            <mxPoint x="548" y="240" as="targetPoint" />
          </mxGeometry>
        </mxCell>
        <mxCell id="OIasl1TtaTXmm97KuADp-118" value="" style="endArrow=none;html=1;rounded=0;" parent="1" edge="1">
          <mxGeometry width="50" height="50" relative="1" as="geometry">
            <mxPoint x="439" y="377.5" as="sourcePoint" />
            <mxPoint x="439" y="370" as="targetPoint" />
          </mxGeometry>
        </mxCell>
        <mxCell id="OIasl1TtaTXmm97KuADp-119" value="" style="endArrow=none;html=1;rounded=0;exitX=0.5;exitY=0;exitDx=0;exitDy=0;" parent="1" source="KmPUtpvsF7lOhPJHQ8SJ-1" edge="1">
          <mxGeometry width="50" height="50" relative="1" as="geometry">
            <mxPoint x="448" y="377.5" as="sourcePoint" />
            <mxPoint x="449" y="360" as="targetPoint" />
          </mxGeometry>
        </mxCell>
        <mxCell id="OIasl1TtaTXmm97KuADp-120" value="" style="endArrow=none;html=1;rounded=0;" parent="1" edge="1">
          <mxGeometry width="50" height="50" relative="1" as="geometry">
            <mxPoint x="419" y="500" as="sourcePoint" />
            <mxPoint x="419" y="437.5" as="targetPoint" />
          </mxGeometry>
        </mxCell>
        <mxCell id="OIasl1TtaTXmm97KuADp-121" value="" style="endArrow=none;html=1;rounded=0;" parent="1" edge="1">
          <mxGeometry width="50" height="50" relative="1" as="geometry">
            <mxPoint x="429" y="510" as="sourcePoint" />
            <mxPoint x="429" y="437.5" as="targetPoint" />
          </mxGeometry>
        </mxCell>
        <mxCell id="OIasl1TtaTXmm97KuADp-122" value="" style="endArrow=none;html=1;rounded=0;" parent="1" edge="1">
          <mxGeometry width="50" height="50" relative="1" as="geometry">
            <mxPoint x="439" y="490" as="sourcePoint" />
            <mxPoint x="439" y="437.5" as="targetPoint" />
          </mxGeometry>
        </mxCell>
        <mxCell id="OIasl1TtaTXmm97KuADp-123" value="" style="endArrow=none;html=1;rounded=0;" parent="1" edge="1">
          <mxGeometry width="50" height="50" relative="1" as="geometry">
            <mxPoint x="449" y="480" as="sourcePoint" />
            <mxPoint x="449" y="437.5" as="targetPoint" />
          </mxGeometry>
        </mxCell>
        <mxCell id="OIasl1TtaTXmm97KuADp-124" value="" style="endArrow=none;html=1;rounded=0;" parent="1" edge="1">
          <mxGeometry width="50" height="50" relative="1" as="geometry">
            <mxPoint x="439" y="370" as="sourcePoint" />
            <mxPoint x="559" y="370" as="targetPoint" />
          </mxGeometry>
        </mxCell>
        <mxCell id="OIasl1TtaTXmm97KuADp-125" value="" style="endArrow=none;html=1;rounded=0;entryX=0.5;entryY=1;entryDx=0;entryDy=0;" parent="1" target="OIasl1TtaTXmm97KuADp-106" edge="1">
          <mxGeometry width="50" height="50" relative="1" as="geometry">
            <mxPoint x="559" y="370" as="sourcePoint" />
            <mxPoint x="609" y="320" as="targetPoint" />
          </mxGeometry>
        </mxCell>
        <mxCell id="OIasl1TtaTXmm97KuADp-126" value="&lt;font style=&quot;font-size: 8px;&quot;&gt;Enable 6&lt;/font&gt;" style="edgeLabel;html=1;align=center;verticalAlign=middle;resizable=0;points=[];rotation=-90;" parent="OIasl1TtaTXmm97KuADp-125" vertex="1" connectable="0">
          <mxGeometry x="0.2059" y="-1" relative="1" as="geometry">
            <mxPoint x="-1" y="2" as="offset" />
          </mxGeometry>
        </mxCell>
        <mxCell id="OIasl1TtaTXmm97KuADp-127" value="" style="endArrow=none;html=1;rounded=0;" parent="1" edge="1">
          <mxGeometry width="50" height="50" relative="1" as="geometry">
            <mxPoint x="448" y="360" as="sourcePoint" />
            <mxPoint x="569" y="360" as="targetPoint" />
          </mxGeometry>
        </mxCell>
        <mxCell id="OIasl1TtaTXmm97KuADp-128" value="" style="endArrow=none;html=1;rounded=0;entryX=0.598;entryY=0.991;entryDx=0;entryDy=0;entryPerimeter=0;" parent="1" target="OIasl1TtaTXmm97KuADp-106" edge="1">
          <mxGeometry width="50" height="50" relative="1" as="geometry">
            <mxPoint x="569" y="360" as="sourcePoint" />
            <mxPoint x="619" y="310" as="targetPoint" />
          </mxGeometry>
        </mxCell>
        <mxCell id="OIasl1TtaTXmm97KuADp-129" value="&lt;font style=&quot;font-size: 8px;&quot;&gt;Direct 7&lt;/font&gt;" style="edgeLabel;html=1;align=center;verticalAlign=middle;resizable=0;points=[];rotation=-90;" parent="OIasl1TtaTXmm97KuADp-128" vertex="1" connectable="0">
          <mxGeometry x="-0.3266" y="-1" relative="1" as="geometry">
            <mxPoint as="offset" />
          </mxGeometry>
        </mxCell>
        <mxCell id="OIasl1TtaTXmm97KuADp-130" value="" style="endArrow=none;html=1;rounded=0;" parent="1" edge="1">
          <mxGeometry width="50" height="50" relative="1" as="geometry">
            <mxPoint x="419" y="497.5" as="sourcePoint" />
            <mxPoint x="589" y="498" as="targetPoint" />
          </mxGeometry>
        </mxCell>
        <mxCell id="OIasl1TtaTXmm97KuADp-132" value="&lt;font style=&quot;font-size: 8px;&quot;&gt;Step 8&amp;nbsp;&lt;/font&gt;" style="edgeLabel;html=1;align=center;verticalAlign=middle;resizable=0;points=[];" parent="OIasl1TtaTXmm97KuADp-130" vertex="1" connectable="0">
          <mxGeometry x="-0.5213" relative="1" as="geometry">
            <mxPoint as="offset" />
          </mxGeometry>
        </mxCell>
        <mxCell id="OIasl1TtaTXmm97KuADp-131" value="" style="endArrow=none;html=1;rounded=0;entryX=0.787;entryY=1.003;entryDx=0;entryDy=0;entryPerimeter=0;" parent="1" target="OIasl1TtaTXmm97KuADp-106" edge="1">
          <mxGeometry width="50" height="50" relative="1" as="geometry">
            <mxPoint x="589" y="497.5" as="sourcePoint" />
            <mxPoint x="639" y="447.5" as="targetPoint" />
          </mxGeometry>
        </mxCell>
        <mxCell id="OIasl1TtaTXmm97KuADp-133" value="" style="endArrow=none;html=1;rounded=0;" parent="1" edge="1">
          <mxGeometry width="50" height="50" relative="1" as="geometry">
            <mxPoint x="429" y="510" as="sourcePoint" />
            <mxPoint x="549" y="510" as="targetPoint" />
          </mxGeometry>
        </mxCell>
        <mxCell id="OIasl1TtaTXmm97KuADp-136" value="&lt;font style=&quot;font-size: 8px;&quot;&gt;Step 9&amp;nbsp;&lt;/font&gt;" style="edgeLabel;html=1;align=center;verticalAlign=middle;resizable=0;points=[];" parent="OIasl1TtaTXmm97KuADp-133" vertex="1" connectable="0">
          <mxGeometry x="-0.1381" y="1" relative="1" as="geometry">
            <mxPoint as="offset" />
          </mxGeometry>
        </mxCell>
        <mxCell id="OIasl1TtaTXmm97KuADp-134" value="" style="endArrow=none;html=1;rounded=0;entryX=0.406;entryY=-0.002;entryDx=0;entryDy=0;entryPerimeter=0;" parent="1" target="OIasl1TtaTXmm97KuADp-107" edge="1">
          <mxGeometry width="50" height="50" relative="1" as="geometry">
            <mxPoint x="549" y="510" as="sourcePoint" />
            <mxPoint x="548" y="587.5" as="targetPoint" />
          </mxGeometry>
        </mxCell>
        <mxCell id="OIasl1TtaTXmm97KuADp-138" value="" style="endArrow=none;html=1;rounded=0;" parent="1" edge="1">
          <mxGeometry width="50" height="50" relative="1" as="geometry">
            <mxPoint x="559" y="587.5" as="sourcePoint" />
            <mxPoint x="559" y="490" as="targetPoint" />
          </mxGeometry>
        </mxCell>
        <mxCell id="OIasl1TtaTXmm97KuADp-139" value="" style="endArrow=none;html=1;rounded=0;" parent="1" edge="1">
          <mxGeometry width="50" height="50" relative="1" as="geometry">
            <mxPoint x="439" y="490" as="sourcePoint" />
            <mxPoint x="559" y="490" as="targetPoint" />
          </mxGeometry>
        </mxCell>
        <mxCell id="OIasl1TtaTXmm97KuADp-140" value="&lt;span style=&quot;font-size: 8px;&quot;&gt;Enable 10&lt;/span&gt;" style="edgeLabel;html=1;align=center;verticalAlign=middle;resizable=0;points=[];" parent="OIasl1TtaTXmm97KuADp-139" vertex="1" connectable="0">
          <mxGeometry x="-0.7915" y="1" relative="1" as="geometry">
            <mxPoint x="46" as="offset" />
          </mxGeometry>
        </mxCell>
        <mxCell id="OIasl1TtaTXmm97KuADp-141" value="" style="endArrow=none;html=1;rounded=0;" parent="1" edge="1">
          <mxGeometry width="50" height="50" relative="1" as="geometry">
            <mxPoint x="569" y="587.5" as="sourcePoint" />
            <mxPoint x="569" y="480" as="targetPoint" />
          </mxGeometry>
        </mxCell>
        <mxCell id="OIasl1TtaTXmm97KuADp-142" value="" style="endArrow=none;html=1;rounded=0;" parent="1" edge="1">
          <mxGeometry width="50" height="50" relative="1" as="geometry">
            <mxPoint x="449" y="480" as="sourcePoint" />
            <mxPoint x="569" y="480" as="targetPoint" />
          </mxGeometry>
        </mxCell>
        <mxCell id="OIasl1TtaTXmm97KuADp-143" value="&lt;font style=&quot;font-size: 8px;&quot;&gt;Direct 11&lt;/font&gt;" style="edgeLabel;html=1;align=center;verticalAlign=middle;resizable=0;points=[];" parent="OIasl1TtaTXmm97KuADp-142" vertex="1" connectable="0">
          <mxGeometry x="0.007" relative="1" as="geometry">
            <mxPoint x="10" y="-2" as="offset" />
          </mxGeometry>
        </mxCell>
        <mxCell id="OIasl1TtaTXmm97KuADp-145" value="" style="endArrow=none;html=1;rounded=0;" parent="1" edge="1">
          <mxGeometry width="50" height="50" relative="1" as="geometry">
            <mxPoint x="639" y="440" as="sourcePoint" />
            <mxPoint x="639" y="492.5" as="targetPoint" />
          </mxGeometry>
        </mxCell>
        <mxCell id="OIasl1TtaTXmm97KuADp-146" value="" style="endArrow=none;html=1;rounded=0;" parent="1" edge="1">
          <mxGeometry width="50" height="50" relative="1" as="geometry">
            <mxPoint x="649" y="450" as="sourcePoint" />
            <mxPoint x="649" y="492.5" as="targetPoint" />
          </mxGeometry>
        </mxCell>
        <mxCell id="OIasl1TtaTXmm97KuADp-159" value="&lt;span style=&quot;font-size: 6px;&quot;&gt;SDA&lt;/span&gt;" style="edgeLabel;html=1;align=center;verticalAlign=middle;resizable=0;points=[];rotation=-90;" parent="OIasl1TtaTXmm97KuADp-146" vertex="1" connectable="0">
          <mxGeometry x="0.2894" y="1" relative="1" as="geometry">
            <mxPoint x="-1" y="3" as="offset" />
          </mxGeometry>
        </mxCell>
        <mxCell id="OIasl1TtaTXmm97KuADp-147" value="" style="endArrow=none;html=1;rounded=0;" parent="1" edge="1">
          <mxGeometry width="50" height="50" relative="1" as="geometry">
            <mxPoint x="659" y="460" as="sourcePoint" />
            <mxPoint x="659" y="492.5" as="targetPoint" />
          </mxGeometry>
        </mxCell>
        <mxCell id="OIasl1TtaTXmm97KuADp-154" value="&lt;span style=&quot;font-size: 6px;&quot;&gt;GND&lt;/span&gt;" style="edgeLabel;html=1;align=center;verticalAlign=middle;resizable=0;points=[];rotation=-90;" parent="OIasl1TtaTXmm97KuADp-147" vertex="1" connectable="0">
          <mxGeometry x="0.0256" y="-2" relative="1" as="geometry">
            <mxPoint x="2" y="3" as="offset" />
          </mxGeometry>
        </mxCell>
        <mxCell id="OIasl1TtaTXmm97KuADp-148" value="" style="endArrow=none;html=1;rounded=0;" parent="1" edge="1">
          <mxGeometry width="50" height="50" relative="1" as="geometry">
            <mxPoint x="669" y="470" as="sourcePoint" />
            <mxPoint x="669" y="492.5" as="targetPoint" />
          </mxGeometry>
        </mxCell>
        <mxCell id="OIasl1TtaTXmm97KuADp-152" value="&lt;span style=&quot;font-size: 6px;&quot;&gt;VCC&lt;/span&gt;" style="edgeLabel;html=1;align=center;verticalAlign=middle;resizable=0;points=[];rotation=-90;" parent="OIasl1TtaTXmm97KuADp-148" vertex="1" connectable="0">
          <mxGeometry x="0.0413" y="1" relative="1" as="geometry">
            <mxPoint x="-1" as="offset" />
          </mxGeometry>
        </mxCell>
        <mxCell id="OIasl1TtaTXmm97KuADp-150" value="" style="endArrow=none;html=1;rounded=0;" parent="1" edge="1">
          <mxGeometry width="50" height="50" relative="1" as="geometry">
            <mxPoint x="498" y="470" as="sourcePoint" />
            <mxPoint x="669" y="470" as="targetPoint" />
          </mxGeometry>
        </mxCell>
        <mxCell id="OIasl1TtaTXmm97KuADp-153" value="" style="endArrow=none;html=1;rounded=0;" parent="1" edge="1">
          <mxGeometry width="50" height="50" relative="1" as="geometry">
            <mxPoint x="529" y="460" as="sourcePoint" />
            <mxPoint x="659" y="460" as="targetPoint" />
          </mxGeometry>
        </mxCell>
        <mxCell id="OIasl1TtaTXmm97KuADp-155" value="" style="endArrow=none;html=1;rounded=0;exitX=1.003;exitY=0.37;exitDx=0;exitDy=0;exitPerimeter=0;" parent="1" source="KmPUtpvsF7lOhPJHQ8SJ-1" edge="1">
          <mxGeometry width="50" height="50" relative="1" as="geometry">
            <mxPoint x="509" y="397.5" as="sourcePoint" />
            <mxPoint x="559" y="400" as="targetPoint" />
          </mxGeometry>
        </mxCell>
        <mxCell id="OIasl1TtaTXmm97KuADp-160" value="&lt;span style=&quot;font-size: 6px;&quot;&gt;PB11&lt;/span&gt;" style="edgeLabel;html=1;align=center;verticalAlign=middle;resizable=0;points=[];" parent="OIasl1TtaTXmm97KuADp-155" vertex="1" connectable="0">
          <mxGeometry x="0.3099" y="-1" relative="1" as="geometry">
            <mxPoint x="-23" y="-3" as="offset" />
          </mxGeometry>
        </mxCell>
        <mxCell id="OIasl1TtaTXmm97KuADp-156" value="" style="endArrow=none;html=1;rounded=0;" parent="1" edge="1">
          <mxGeometry width="50" height="50" relative="1" as="geometry">
            <mxPoint x="509" y="410" as="sourcePoint" />
            <mxPoint x="539" y="410" as="targetPoint" />
          </mxGeometry>
        </mxCell>
        <mxCell id="OIasl1TtaTXmm97KuADp-163" value="&lt;font style=&quot;font-size: 6px;&quot;&gt;PB10&lt;/font&gt;" style="edgeLabel;html=1;align=center;verticalAlign=middle;resizable=0;points=[];" parent="OIasl1TtaTXmm97KuADp-156" vertex="1" connectable="0">
          <mxGeometry x="-0.3481" y="1" relative="1" as="geometry">
            <mxPoint y="1" as="offset" />
          </mxGeometry>
        </mxCell>
        <mxCell id="OIasl1TtaTXmm97KuADp-157" value="" style="endArrow=none;html=1;rounded=0;" parent="1" edge="1">
          <mxGeometry width="50" height="50" relative="1" as="geometry">
            <mxPoint x="559" y="450" as="sourcePoint" />
            <mxPoint x="559" y="400" as="targetPoint" />
          </mxGeometry>
        </mxCell>
        <mxCell id="OIasl1TtaTXmm97KuADp-158" value="" style="endArrow=none;html=1;rounded=0;" parent="1" edge="1">
          <mxGeometry width="50" height="50" relative="1" as="geometry">
            <mxPoint x="559" y="450" as="sourcePoint" />
            <mxPoint x="649" y="450" as="targetPoint" />
          </mxGeometry>
        </mxCell>
        <mxCell id="OIasl1TtaTXmm97KuADp-161" value="" style="endArrow=none;html=1;rounded=0;" parent="1" edge="1">
          <mxGeometry width="50" height="50" relative="1" as="geometry">
            <mxPoint x="539" y="440" as="sourcePoint" />
            <mxPoint x="639" y="440" as="targetPoint" />
          </mxGeometry>
        </mxCell>
        <mxCell id="OIasl1TtaTXmm97KuADp-162" value="" style="endArrow=none;html=1;rounded=0;" parent="1" edge="1">
          <mxGeometry width="50" height="50" relative="1" as="geometry">
            <mxPoint x="539" y="440" as="sourcePoint" />
            <mxPoint x="539" y="410" as="targetPoint" />
          </mxGeometry>
        </mxCell>
        <mxCell id="OIasl1TtaTXmm97KuADp-165" value="" style="endArrow=none;html=1;rounded=0;" parent="1" edge="1">
          <mxGeometry width="50" height="50" relative="1" as="geometry">
            <mxPoint x="689" y="510" as="sourcePoint" />
            <mxPoint x="719" y="510" as="targetPoint" />
          </mxGeometry>
        </mxCell>
        <mxCell id="OIasl1TtaTXmm97KuADp-166" value="" style="endArrow=none;html=1;rounded=0;" parent="1" edge="1">
          <mxGeometry width="50" height="50" relative="1" as="geometry">
            <mxPoint x="689" y="520" as="sourcePoint" />
            <mxPoint x="719" y="520" as="targetPoint" />
          </mxGeometry>
        </mxCell>
        <mxCell id="OIasl1TtaTXmm97KuADp-167" value="Stepper Horizontal" style="rounded=1;whiteSpace=wrap;html=1;fillColor=#f8cecc;strokeColor=#b85450;" parent="1" vertex="1">
          <mxGeometry x="639" y="587.5" width="100" height="60" as="geometry" />
        </mxCell>
        <mxCell id="OIasl1TtaTXmm97KuADp-168" value="Stepper Vertical" style="rounded=1;whiteSpace=wrap;html=1;fillColor=#f8cecc;strokeColor=#b85450;" parent="1" vertex="1">
          <mxGeometry x="639" y="170" width="100" height="60" as="geometry" />
        </mxCell>
        <mxCell id="OIasl1TtaTXmm97KuADp-169" value="" style="endArrow=none;html=1;rounded=0;entryX=0.003;entryY=0.157;entryDx=0;entryDy=0;entryPerimeter=0;exitX=1.001;exitY=0.148;exitDx=0;exitDy=0;exitPerimeter=0;" parent="1" edge="1">
          <mxGeometry width="50" height="50" relative="1" as="geometry">
            <mxPoint x="608.8000000000001" y="190.00000000000006" as="sourcePoint" />
            <mxPoint x="639" y="190.54000000000002" as="targetPoint" />
          </mxGeometry>
        </mxCell>
        <mxCell id="OIasl1TtaTXmm97KuADp-170" value="" style="endArrow=none;html=1;rounded=0;entryX=0;entryY=0.5;entryDx=0;entryDy=0;" parent="1" target="OIasl1TtaTXmm97KuADp-168" edge="1">
          <mxGeometry width="50" height="50" relative="1" as="geometry">
            <mxPoint x="609" y="200" as="sourcePoint" />
            <mxPoint x="659" y="150" as="targetPoint" />
          </mxGeometry>
        </mxCell>
        <mxCell id="OIasl1TtaTXmm97KuADp-171" value="" style="endArrow=none;html=1;rounded=0;entryX=-0.016;entryY=0.672;entryDx=0;entryDy=0;entryPerimeter=0;" parent="1" target="OIasl1TtaTXmm97KuADp-168" edge="1">
          <mxGeometry width="50" height="50" relative="1" as="geometry">
            <mxPoint x="609" y="210" as="sourcePoint" />
            <mxPoint x="659" y="160" as="targetPoint" />
          </mxGeometry>
        </mxCell>
        <mxCell id="OIasl1TtaTXmm97KuADp-172" value="" style="endArrow=none;html=1;rounded=0;entryX=-0.018;entryY=0.846;entryDx=0;entryDy=0;entryPerimeter=0;" parent="1" target="OIasl1TtaTXmm97KuADp-168" edge="1">
          <mxGeometry width="50" height="50" relative="1" as="geometry">
            <mxPoint x="609" y="220" as="sourcePoint" />
            <mxPoint x="659" y="170" as="targetPoint" />
          </mxGeometry>
        </mxCell>
        <mxCell id="OIasl1TtaTXmm97KuADp-173" value="" style="endArrow=none;html=1;rounded=0;entryX=0;entryY=0.25;entryDx=0;entryDy=0;" parent="1" edge="1">
          <mxGeometry width="50" height="50" relative="1" as="geometry">
            <mxPoint x="609" y="610" as="sourcePoint" />
            <mxPoint x="639" y="609.9999999999999" as="targetPoint" />
          </mxGeometry>
        </mxCell>
        <mxCell id="OIasl1TtaTXmm97KuADp-174" value="" style="endArrow=none;html=1;rounded=0;entryX=-0.003;entryY=0.36;entryDx=0;entryDy=0;entryPerimeter=0;" parent="1" edge="1">
          <mxGeometry width="50" height="50" relative="1" as="geometry">
            <mxPoint x="609" y="620" as="sourcePoint" />
            <mxPoint x="638.6999999999999" y="620.0999999999999" as="targetPoint" />
          </mxGeometry>
        </mxCell>
        <mxCell id="OIasl1TtaTXmm97KuADp-175" value="" style="endArrow=none;html=1;rounded=0;entryX=-0.011;entryY=0.544;entryDx=0;entryDy=0;entryPerimeter=0;" parent="1" edge="1">
          <mxGeometry width="50" height="50" relative="1" as="geometry">
            <mxPoint x="609" y="630" as="sourcePoint" />
            <mxPoint x="637.9" y="630.1399999999999" as="targetPoint" />
          </mxGeometry>
        </mxCell>
        <mxCell id="OIasl1TtaTXmm97KuADp-176" value="" style="endArrow=none;html=1;rounded=0;entryX=-0.011;entryY=0.79;entryDx=0;entryDy=0;entryPerimeter=0;" parent="1" target="OIasl1TtaTXmm97KuADp-167" edge="1">
          <mxGeometry width="50" height="50" relative="1" as="geometry">
            <mxPoint x="609" y="635" as="sourcePoint" />
            <mxPoint x="659" y="585" as="targetPoint" />
          </mxGeometry>
        </mxCell>
        <mxCell id="zGGA3POGzjoNf4VncazY-1" value="4" style="ellipse;whiteSpace=wrap;html=1;aspect=fixed;fillColor=#f5f5f5;gradientColor=#b3b3b3;strokeColor=#666666;" parent="1" vertex="1">
          <mxGeometry x="479" y="527.5" width="30" height="30" as="geometry" />
        </mxCell>
        <mxCell id="zGGA3POGzjoNf4VncazY-2" value="5" style="ellipse;whiteSpace=wrap;html=1;aspect=fixed;fillColor=#cce5ff;strokeColor=#36393d;" parent="1" vertex="1">
          <mxGeometry x="420" y="570" width="30" height="30" as="geometry" />
        </mxCell>
      </root>
    </mxGraphModel>
  </diagram>
</mxfile>
